solid STL generated by MeshLab
  facet normal  8.034850e-01  5.953251e-01 -0.000000e+00
    outer loop
      vertex   9.579596e-01  1.071389e+00  0.000000e+00
      vertex   9.579596e-01  1.071389e+00  4.000000e+00
      vertex   1.354871e+00  5.356944e-01  4.000000e+00
    endloop
  endfacet
  facet normal  8.034850e-01  5.953251e-01  0.000000e+00
    outer loop
      vertex   9.579596e-01  1.071389e+00  0.000000e+00
      vertex   1.354871e+00  5.356944e-01  4.000000e+00
      vertex   1.354871e+00  5.356944e-01  0.000000e+00
    endloop
  endfacet
  facet normal  6.587201e-01 -7.523881e-01  0.000000e+00
    outer loop
      vertex   9.579596e-01  1.071389e+00  0.000000e+00
      vertex   1.751782e+00  1.766385e+00  0.000000e+00
      vertex   1.751782e+00  1.766385e+00  4.000000e+00
    endloop
  endfacet
  facet normal  6.587201e-01 -7.523881e-01  0.000000e+00
    outer loop
      vertex   9.579596e-01  1.071389e+00  0.000000e+00
      vertex   1.751782e+00  1.766385e+00  4.000000e+00
      vertex   9.579596e-01  1.071389e+00  4.000000e+00
    endloop
  endfacet
  facet normal  0.000000e+00  0.000000e+00 -1.000000e+00
    outer loop
      vertex   0.000000e+00  1.071389e+00  0.000000e+00
      vertex   9.579596e-01  1.071389e+00  0.000000e+00
      vertex   1.354871e+00  5.356944e-01  0.000000e+00
    endloop
  endfacet
  facet normal  0.000000e+00  0.000000e+00 -1.000000e+00
    outer loop
      vertex   0.000000e+00  1.071389e+00  0.000000e+00
      vertex   1.354871e+00  5.356944e-01  0.000000e+00
      vertex   6.921928e-01  0.000000e+00  0.000000e+00
    endloop
  endfacet
  facet normal  0.000000e+00  0.000000e+00 -1.000000e+00
    outer loop
      vertex   0.000000e+00  1.071389e+00  0.000000e+00
      vertex   1.380424e+00  2.461382e+00  0.000000e+00
      vertex   1.751782e+00  1.766385e+00  0.000000e+00
    endloop
  endfacet
  facet normal  0.000000e+00  0.000000e+00 -1.000000e+00
    outer loop
      vertex   0.000000e+00  1.071389e+00  0.000000e+00
      vertex   1.751782e+00  1.766385e+00  0.000000e+00
      vertex   9.579596e-01  1.071389e+00  0.000000e+00
    endloop
  endfacet
  facet normal  0.000000e+00  0.000000e+00 -1.000000e+00
    outer loop
      vertex   1.380424e+00  2.461382e+00  0.000000e+00
      vertex   5.683753e+00  2.461382e+00  0.000000e+00
      vertex   5.683753e+00  1.766385e+00  0.000000e+00
    endloop
  endfacet
  facet normal  0.000000e+00  0.000000e+00 -1.000000e+00
    outer loop
      vertex   1.380424e+00  2.461382e+00  0.000000e+00
      vertex   5.683753e+00  1.766385e+00  0.000000e+00
      vertex   1.751782e+00  1.766385e+00  0.000000e+00
    endloop
  endfacet
  facet normal  6.286597e-01 -7.776805e-01  0.000000e+00
    outer loop
      vertex   6.921928e-01  0.000000e+00  0.000000e+00
      vertex   1.354871e+00  5.356944e-01  0.000000e+00
      vertex   1.354871e+00  5.356944e-01  4.000000e+00
    endloop
  endfacet
  facet normal  6.286597e-01 -7.776805e-01  0.000000e+00
    outer loop
      vertex   6.921928e-01  0.000000e+00  0.000000e+00
      vertex   1.354871e+00  5.356944e-01  4.000000e+00
      vertex   6.921928e-01  0.000000e+00  4.000000e+00
    endloop
  endfacet
  facet normal  0.000000e+00  0.000000e+00  1.000000e+00
    outer loop
      vertex   0.000000e+00  1.071389e+00  4.000000e+00
      vertex   9.579596e-01  1.071389e+00  4.000000e+00
      vertex   1.751782e+00  1.766385e+00  4.000000e+00
    endloop
  endfacet
  facet normal  0.000000e+00  0.000000e+00  1.000000e+00
    outer loop
      vertex   0.000000e+00  1.071389e+00  4.000000e+00
      vertex   1.751782e+00  1.766385e+00  4.000000e+00
      vertex   1.380424e+00  2.461382e+00  4.000000e+00
    endloop
  endfacet
  facet normal  0.000000e+00  0.000000e+00  1.000000e+00
    outer loop
      vertex   1.751782e+00  1.766385e+00  4.000000e+00
      vertex   5.683753e+00  1.766385e+00  4.000000e+00
      vertex   5.683753e+00  2.461382e+00  4.000000e+00
    endloop
  endfacet
  facet normal  0.000000e+00 -0.000000e+00  1.000000e+00
    outer loop
      vertex   1.751782e+00  1.766385e+00  4.000000e+00
      vertex   5.683753e+00  2.461382e+00  4.000000e+00
      vertex   1.380424e+00  2.461382e+00  4.000000e+00
    endloop
  endfacet
  facet normal  0.000000e+00  0.000000e+00  1.000000e+00
    outer loop
      vertex   0.000000e+00  1.071389e+00  4.000000e+00
      vertex   6.921928e-01  0.000000e+00  4.000000e+00
      vertex   1.354871e+00  5.356944e-01  4.000000e+00
    endloop
  endfacet
  facet normal -0.000000e+00  0.000000e+00  1.000000e+00
    outer loop
      vertex   0.000000e+00  1.071389e+00  4.000000e+00
      vertex   1.354871e+00  5.356944e-01  4.000000e+00
      vertex   9.579596e-01  1.071389e+00  4.000000e+00
    endloop
  endfacet
  facet normal  0.000000e+00 -1.000000e+00  0.000000e+00
    outer loop
      vertex   1.751782e+00  1.766385e+00  0.000000e+00
      vertex   5.683753e+00  1.766385e+00  0.000000e+00
      vertex   5.683753e+00  1.766385e+00  4.000000e+00
    endloop
  endfacet
  facet normal  0.000000e+00 -1.000000e+00  0.000000e+00
    outer loop
      vertex   1.751782e+00  1.766385e+00  0.000000e+00
      vertex   5.683753e+00  1.766385e+00  4.000000e+00
      vertex   1.751782e+00  1.766385e+00  4.000000e+00
    endloop
  endfacet
  facet normal -8.399485e-01 -5.426660e-01  0.000000e+00
    outer loop
      vertex   0.000000e+00  1.071389e+00  0.000000e+00
      vertex   6.921928e-01  0.000000e+00  0.000000e+00
      vertex   6.921928e-01  0.000000e+00  4.000000e+00
    endloop
  endfacet
  facet normal -8.399485e-01 -5.426660e-01  0.000000e+00
    outer loop
      vertex   0.000000e+00  1.071389e+00  0.000000e+00
      vertex   6.921928e-01  0.000000e+00  4.000000e+00
      vertex   0.000000e+00  1.071389e+00  4.000000e+00
    endloop
  endfacet
  facet normal -7.095449e-01  7.046603e-01  0.000000e+00
    outer loop
      vertex   0.000000e+00  1.071389e+00  0.000000e+00
      vertex   0.000000e+00  1.071389e+00  4.000000e+00
      vertex   1.380424e+00  2.461382e+00  4.000000e+00
    endloop
  endfacet
  facet normal -7.095449e-01  7.046603e-01  0.000000e+00
    outer loop
      vertex   0.000000e+00  1.071389e+00  0.000000e+00
      vertex   1.380424e+00  2.461382e+00  4.000000e+00
      vertex   1.380424e+00  2.461382e+00  0.000000e+00
    endloop
  endfacet
  facet normal  1.000000e+00  0.000000e+00  0.000000e+00
    outer loop
      vertex   5.683753e+00  1.766385e+00  0.000000e+00
      vertex   5.683753e+00  2.461382e+00  0.000000e+00
      vertex   5.683753e+00  2.461382e+00  4.000000e+00
    endloop
  endfacet
  facet normal  1.000000e+00  0.000000e+00  0.000000e+00
    outer loop
      vertex   5.683753e+00  1.766385e+00  0.000000e+00
      vertex   5.683753e+00  2.461382e+00  4.000000e+00
      vertex   5.683753e+00  1.766385e+00  4.000000e+00
    endloop
  endfacet
  facet normal  0.000000e+00  1.000000e+00  0.000000e+00
    outer loop
      vertex   1.380424e+00  2.461382e+00  0.000000e+00
      vertex   1.380424e+00  2.461382e+00  4.000000e+00
      vertex   5.683753e+00  2.461382e+00  4.000000e+00
    endloop
  endfacet
  facet normal  0.000000e+00  1.000000e+00  0.000000e+00
    outer loop
      vertex   1.380424e+00  2.461382e+00  0.000000e+00
      vertex   5.683753e+00  2.461382e+00  4.000000e+00
      vertex   5.683753e+00  2.461382e+00  0.000000e+00
    endloop
  endfacet
endsolid vcg
