solid STL generated by MeshLab
  facet normal -2.535079e-01 -9.673333e-01  0.000000e+00
    outer loop
      vertex   1.463859e+00  7.725928e-01  0.000000e+00
      vertex   4.411912e+00  0.000000e+00  0.000000e+00
      vertex   4.411912e+00  0.000000e+00  8.000000e+00
    endloop
  endfacet
  facet normal -2.535079e-01 -9.673333e-01  0.000000e+00
    outer loop
      vertex   1.463859e+00  7.725928e-01  0.000000e+00
      vertex   4.411912e+00  0.000000e+00  8.000000e+00
      vertex   1.463859e+00  7.725928e-01  8.000000e+00
    endloop
  endfacet
  facet normal -5.350517e-01  8.448193e-01  0.000000e+00
    outer loop
      vertex   3.049708e+00  7.990236e+00  0.000000e+00
      vertex   0.000000e+00  6.058756e+00  0.000000e+00
      vertex   0.000000e+00  6.058756e+00  8.000000e+00
    endloop
  endfacet
  facet normal -5.350517e-01  8.448193e-01  0.000000e+00
    outer loop
      vertex   3.049708e+00  7.990236e+00  0.000000e+00
      vertex   0.000000e+00  6.058756e+00  8.000000e+00
      vertex   3.049708e+00  7.990236e+00  8.000000e+00
    endloop
  endfacet
  facet normal  7.162821e-01  6.978108e-01  0.000000e+00
    outer loop
      vertex   6.506045e+00  4.442408e+00  0.000000e+00
      vertex   3.049708e+00  7.990236e+00  0.000000e+00
      vertex   3.049708e+00  7.990236e+00  8.000000e+00
    endloop
  endfacet
  facet normal  7.162821e-01  6.978108e-01 -0.000000e+00
    outer loop
      vertex   6.506045e+00  4.442408e+00  0.000000e+00
      vertex   3.049708e+00  7.990236e+00  8.000000e+00
      vertex   6.506045e+00  4.442408e+00  8.000000e+00
    endloop
  endfacet
  facet normal  0.000000e+00  0.000000e+00 -1.000000e+00
    outer loop
      vertex   4.411912e+00  0.000000e+00  0.000000e+00
      vertex   3.925283e+00  1.289602e+00  0.000000e+00
      vertex   5.458978e+00  4.543120e+00  0.000000e+00
    endloop
  endfacet
  facet normal  0.000000e+00  0.000000e+00 -1.000000e+00
    outer loop
      vertex   4.411912e+00  0.000000e+00  0.000000e+00
      vertex   5.458978e+00  4.543120e+00  0.000000e+00
      vertex   6.506045e+00  4.442408e+00  0.000000e+00
    endloop
  endfacet
  facet normal  0.000000e+00  0.000000e+00 -1.000000e+00
    outer loop
      vertex   5.458978e+00  4.543120e+00  0.000000e+00
      vertex   2.391587e+00  7.024496e+00  0.000000e+00
      vertex   2.279751e+00  7.502597e+00  0.000000e+00
    endloop
  endfacet
  facet normal  0.000000e+00  0.000000e+00 -1.000000e+00
    outer loop
      vertex   5.458978e+00  4.543120e+00  0.000000e+00
      vertex   2.279751e+00  7.502597e+00  0.000000e+00
      vertex   3.049708e+00  7.990236e+00  0.000000e+00
    endloop
  endfacet
  facet normal  0.000000e+00  0.000000e+00 -1.000000e+00
    outer loop
      vertex   5.458978e+00  4.543120e+00  0.000000e+00
      vertex   3.049708e+00  7.990236e+00  0.000000e+00
      vertex   6.506045e+00  4.442408e+00  0.000000e+00
    endloop
  endfacet
  facet normal  0.000000e+00  0.000000e+00 -1.000000e+00
    outer loop
      vertex   2.391587e+00  7.024496e+00  0.000000e+00
      vertex   7.319300e-01  3.415674e+00  0.000000e+00
      vertex   0.000000e+00  6.058756e+00  0.000000e+00
    endloop
  endfacet
  facet normal -0.000000e+00  0.000000e+00 -1.000000e+00
    outer loop
      vertex   2.391587e+00  7.024496e+00  0.000000e+00
      vertex   0.000000e+00  6.058756e+00  0.000000e+00
      vertex   2.279751e+00  7.502597e+00  0.000000e+00
    endloop
  endfacet
  facet normal  0.000000e+00  0.000000e+00 -1.000000e+00
    outer loop
      vertex   4.411912e+00  0.000000e+00  0.000000e+00
      vertex   1.463859e+00  7.725928e-01  0.000000e+00
      vertex   7.319300e-01  3.415674e+00  0.000000e+00
    endloop
  endfacet
  facet normal  0.000000e+00  0.000000e+00 -1.000000e+00
    outer loop
      vertex   4.411912e+00  0.000000e+00  0.000000e+00
      vertex   7.319300e-01  3.415674e+00  0.000000e+00
      vertex   3.925283e+00  1.289602e+00  0.000000e+00
    endloop
  endfacet
  facet normal  0.000000e+00  0.000000e+00  1.000000e+00
    outer loop
      vertex   6.506045e+00  4.442408e+00  8.000000e+00
      vertex   5.458978e+00  4.543120e+00  8.000000e+00
      vertex   3.925283e+00  1.289602e+00  8.000000e+00
    endloop
  endfacet
  facet normal  0.000000e+00  0.000000e+00  1.000000e+00
    outer loop
      vertex   6.506045e+00  4.442408e+00  8.000000e+00
      vertex   3.925283e+00  1.289602e+00  8.000000e+00
      vertex   4.411912e+00  0.000000e+00  8.000000e+00
    endloop
  endfacet
  facet normal  0.000000e+00  0.000000e+00  1.000000e+00
    outer loop
      vertex   6.506045e+00  4.442408e+00  8.000000e+00
      vertex   3.049708e+00  7.990236e+00  8.000000e+00
      vertex   2.279751e+00  7.502597e+00  8.000000e+00
    endloop
  endfacet
  facet normal  0.000000e+00  0.000000e+00  1.000000e+00
    outer loop
      vertex   6.506045e+00  4.442408e+00  8.000000e+00
      vertex   2.279751e+00  7.502597e+00  8.000000e+00
      vertex   2.391587e+00  7.024496e+00  8.000000e+00
    endloop
  endfacet
  facet normal  0.000000e+00  0.000000e+00  1.000000e+00
    outer loop
      vertex   6.506045e+00  4.442408e+00  8.000000e+00
      vertex   2.391587e+00  7.024496e+00  8.000000e+00
      vertex   5.458978e+00  4.543120e+00  8.000000e+00
    endloop
  endfacet
  facet normal  0.000000e+00  0.000000e+00  1.000000e+00
    outer loop
      vertex   2.279751e+00  7.502597e+00  8.000000e+00
      vertex   0.000000e+00  6.058756e+00  8.000000e+00
      vertex   7.319300e-01  3.415674e+00  8.000000e+00
    endloop
  endfacet
  facet normal  0.000000e+00  0.000000e+00  1.000000e+00
    outer loop
      vertex   2.279751e+00  7.502597e+00  8.000000e+00
      vertex   7.319300e-01  3.415674e+00  8.000000e+00
      vertex   2.391587e+00  7.024496e+00  8.000000e+00
    endloop
  endfacet
  facet normal  0.000000e+00  0.000000e+00  1.000000e+00
    outer loop
      vertex   3.925283e+00  1.289602e+00  8.000000e+00
      vertex   7.319300e-01  3.415674e+00  8.000000e+00
      vertex   1.463859e+00  7.725928e-01  8.000000e+00
    endloop
  endfacet
  facet normal  0.000000e+00  0.000000e+00  1.000000e+00
    outer loop
      vertex   3.925283e+00  1.289602e+00  8.000000e+00
      vertex   1.463859e+00  7.725928e-01  8.000000e+00
      vertex   4.411912e+00  0.000000e+00  8.000000e+00
    endloop
  endfacet
  facet normal  9.045370e-01 -4.263950e-01  0.000000e+00
    outer loop
      vertex   4.411912e+00  0.000000e+00  0.000000e+00
      vertex   6.506045e+00  4.442408e+00  0.000000e+00
      vertex   6.506045e+00  4.442408e+00  8.000000e+00
    endloop
  endfacet
  facet normal  9.045370e-01 -4.263950e-01  0.000000e+00
    outer loop
      vertex   4.411912e+00  0.000000e+00  0.000000e+00
      vertex   6.506045e+00  4.442408e+00  8.000000e+00
      vertex   4.411912e+00  0.000000e+00  8.000000e+00
    endloop
  endfacet
  facet normal -9.637300e-01 -2.668788e-01 -0.000000e+00
    outer loop
      vertex   0.000000e+00  6.058756e+00  8.000000e+00
      vertex   0.000000e+00  6.058756e+00  0.000000e+00
      vertex   1.463859e+00  7.725928e-01  0.000000e+00
    endloop
  endfacet
  facet normal -9.637300e-01 -2.668788e-01  0.000000e+00
    outer loop
      vertex   0.000000e+00  6.058756e+00  8.000000e+00
      vertex   1.463859e+00  7.725928e-01  0.000000e+00
      vertex   1.463859e+00  7.725928e-01  8.000000e+00
    endloop
  endfacet
  facet normal  5.541894e-01  8.323906e-01 -0.000000e+00
    outer loop
      vertex   7.319300e-01  3.415674e+00  0.000000e+00
      vertex   7.319300e-01  3.415674e+00  8.000000e+00
      vertex   3.925283e+00  1.289602e+00  8.000000e+00
    endloop
  endfacet
  facet normal  5.541894e-01  8.323906e-01  0.000000e+00
    outer loop
      vertex   7.319300e-01  3.415674e+00  0.000000e+00
      vertex   3.925283e+00  1.289602e+00  8.000000e+00
      vertex   3.925283e+00  1.289602e+00  0.000000e+00
    endloop
  endfacet
  facet normal  9.085288e-01 -4.178223e-01  0.000000e+00
    outer loop
      vertex   7.319300e-01  3.415674e+00  8.000000e+00
      vertex   7.319300e-01  3.415674e+00  0.000000e+00
      vertex   2.391587e+00  7.024496e+00  0.000000e+00
    endloop
  endfacet
  facet normal  9.085288e-01 -4.178223e-01  0.000000e+00
    outer loop
      vertex   7.319300e-01  3.415674e+00  8.000000e+00
      vertex   2.391587e+00  7.024496e+00  0.000000e+00
      vertex   2.391587e+00  7.024496e+00  8.000000e+00
    endloop
  endfacet
  facet normal -6.289302e-01 -7.774617e-01 -0.000000e+00
    outer loop
      vertex   2.391587e+00  7.024496e+00  8.000000e+00
      vertex   2.391587e+00  7.024496e+00  0.000000e+00
      vertex   5.458978e+00  4.543120e+00  0.000000e+00
    endloop
  endfacet
  facet normal -6.289302e-01 -7.774617e-01  0.000000e+00
    outer loop
      vertex   2.391587e+00  7.024496e+00  8.000000e+00
      vertex   5.458978e+00  4.543120e+00  0.000000e+00
      vertex   5.458978e+00  4.543120e+00  8.000000e+00
    endloop
  endfacet
  facet normal -9.045370e-01  4.263951e-01  0.000000e+00
    outer loop
      vertex   5.458978e+00  4.543120e+00  8.000000e+00
      vertex   5.458978e+00  4.543120e+00  0.000000e+00
      vertex   3.925283e+00  1.289602e+00  0.000000e+00
    endloop
  endfacet
  facet normal -9.045370e-01  4.263951e-01  0.000000e+00
    outer loop
      vertex   5.458978e+00  4.543120e+00  8.000000e+00
      vertex   3.925283e+00  1.289602e+00  0.000000e+00
      vertex   3.925283e+00  1.289602e+00  8.000000e+00
    endloop
  endfacet
endsolid vcg
