solid STL generated by MeshLab
  facet normal  0.000000e+00  0.000000e+00 -1.000000e+00
    outer loop
      vertex   0.000000e+00  0.000000e+00  0.000000e+00
      vertex   3.621509e-01  1.115486e+00  0.000000e+00
      vertex   1.122967e+01  1.115486e+00  0.000000e+00
    endloop
  endfacet
  facet normal  0.000000e+00  0.000000e+00 -1.000000e+00
    outer loop
      vertex   0.000000e+00  0.000000e+00  0.000000e+00
      vertex   1.122967e+01  1.115486e+00  0.000000e+00
      vertex   1.122967e+01  0.000000e+00  0.000000e+00
    endloop
  endfacet
  facet normal  0.000000e+00  0.000000e+00 -1.000000e+00
    outer loop
      vertex   0.000000e+00  0.000000e+00  0.000000e+00
      vertex   0.000000e+00  2.230972e+00  0.000000e+00
      vertex   3.621509e-01  2.230972e+00  0.000000e+00
    endloop
  endfacet
  facet normal  0.000000e+00  0.000000e+00 -1.000000e+00
    outer loop
      vertex   0.000000e+00  0.000000e+00  0.000000e+00
      vertex   3.621509e-01  2.230972e+00  0.000000e+00
      vertex   3.621509e-01  1.115486e+00  0.000000e+00
    endloop
  endfacet
  facet normal  0.000000e+00  1.000000e+00  0.000000e+00
    outer loop
      vertex   3.621509e-01  1.115486e+00  0.000000e+00
      vertex   3.621509e-01  1.115486e+00  8.000000e-01
      vertex   1.122967e+01  1.115486e+00  8.000000e-01
    endloop
  endfacet
  facet normal  0.000000e+00  1.000000e+00  0.000000e+00
    outer loop
      vertex   3.621509e-01  1.115486e+00  0.000000e+00
      vertex   1.122967e+01  1.115486e+00  8.000000e-01
      vertex   1.122967e+01  1.115486e+00  0.000000e+00
    endloop
  endfacet
  facet normal  1.000000e+00  0.000000e+00  0.000000e+00
    outer loop
      vertex   3.621509e-01  1.115486e+00  0.000000e+00
      vertex   3.621509e-01  2.230972e+00  0.000000e+00
      vertex   3.621509e-01  2.230972e+00  8.000000e-01
    endloop
  endfacet
  facet normal  1.000000e+00  0.000000e+00  0.000000e+00
    outer loop
      vertex   3.621509e-01  1.115486e+00  0.000000e+00
      vertex   3.621509e-01  2.230972e+00  8.000000e-01
      vertex   3.621509e-01  1.115486e+00  8.000000e-01
    endloop
  endfacet
  facet normal  0.000000e+00 -1.000000e+00  0.000000e+00
    outer loop
      vertex   0.000000e+00  0.000000e+00  0.000000e+00
      vertex   1.122967e+01  0.000000e+00  0.000000e+00
      vertex   1.122967e+01  0.000000e+00  8.000000e-01
    endloop
  endfacet
  facet normal  0.000000e+00 -1.000000e+00  0.000000e+00
    outer loop
      vertex   0.000000e+00  0.000000e+00  0.000000e+00
      vertex   1.122967e+01  0.000000e+00  8.000000e-01
      vertex   0.000000e+00  0.000000e+00  8.000000e-01
    endloop
  endfacet
  facet normal -1.000000e+00  0.000000e+00  0.000000e+00
    outer loop
      vertex   0.000000e+00  0.000000e+00  0.000000e+00
      vertex   0.000000e+00  0.000000e+00  8.000000e-01
      vertex   0.000000e+00  2.230972e+00  8.000000e-01
    endloop
  endfacet
  facet normal -1.000000e+00  0.000000e+00  0.000000e+00
    outer loop
      vertex   0.000000e+00  0.000000e+00  0.000000e+00
      vertex   0.000000e+00  2.230972e+00  8.000000e-01
      vertex   0.000000e+00  2.230972e+00  0.000000e+00
    endloop
  endfacet
  facet normal  1.000000e+00  0.000000e+00  0.000000e+00
    outer loop
      vertex   1.122967e+01  0.000000e+00  0.000000e+00
      vertex   1.122967e+01  1.115486e+00  0.000000e+00
      vertex   1.122967e+01  1.115486e+00  8.000000e-01
    endloop
  endfacet
  facet normal  1.000000e+00  0.000000e+00  0.000000e+00
    outer loop
      vertex   1.122967e+01  0.000000e+00  0.000000e+00
      vertex   1.122967e+01  1.115486e+00  8.000000e-01
      vertex   1.122967e+01  0.000000e+00  8.000000e-01
    endloop
  endfacet
  facet normal  0.000000e+00  1.000000e+00  0.000000e+00
    outer loop
      vertex   0.000000e+00  2.230972e+00  0.000000e+00
      vertex   0.000000e+00  2.230972e+00  8.000000e-01
      vertex   3.621509e-01  2.230972e+00  8.000000e-01
    endloop
  endfacet
  facet normal  0.000000e+00  1.000000e+00  0.000000e+00
    outer loop
      vertex   0.000000e+00  2.230972e+00  0.000000e+00
      vertex   3.621509e-01  2.230972e+00  8.000000e-01
      vertex   3.621509e-01  2.230972e+00  0.000000e+00
    endloop
  endfacet
  facet normal  0.000000e+00  0.000000e+00  1.000000e+00
    outer loop
      vertex   0.000000e+00  0.000000e+00  8.000000e-01
      vertex   3.621509e-01  1.115486e+00  8.000000e-01
      vertex   3.621509e-01  2.230972e+00  8.000000e-01
    endloop
  endfacet
  facet normal  0.000000e+00  0.000000e+00  1.000000e+00
    outer loop
      vertex   0.000000e+00  0.000000e+00  8.000000e-01
      vertex   3.621509e-01  2.230972e+00  8.000000e-01
      vertex   0.000000e+00  2.230972e+00  8.000000e-01
    endloop
  endfacet
  facet normal  0.000000e+00  0.000000e+00  1.000000e+00
    outer loop
      vertex   0.000000e+00  0.000000e+00  8.000000e-01
      vertex   1.122967e+01  0.000000e+00  8.000000e-01
      vertex   1.122967e+01  1.115486e+00  8.000000e-01
    endloop
  endfacet
  facet normal  0.000000e+00  0.000000e+00  1.000000e+00
    outer loop
      vertex   0.000000e+00  0.000000e+00  8.000000e-01
      vertex   1.122967e+01  1.115486e+00  8.000000e-01
      vertex   3.621509e-01  1.115486e+00  8.000000e-01
    endloop
  endfacet
endsolid vcg
