solid STL generated by MeshLab
  facet normal -9.878839e-01 -1.551951e-01  0.000000e+00
    outer loop
      vertex   1.181503e+00  6.782828e+00  0.000000e+00
      vertex   1.646356e+00  3.823838e+00  0.000000e+00
      vertex   1.646356e+00  3.823838e+00  1.000000e+01
    endloop
  endfacet
  facet normal -9.878839e-01 -1.551951e-01  0.000000e+00
    outer loop
      vertex   1.181503e+00  6.782828e+00  0.000000e+00
      vertex   1.646356e+00  3.823838e+00  1.000000e+01
      vertex   1.181503e+00  6.782828e+00  1.000000e+01
    endloop
  endfacet
  facet normal  8.108400e-01  5.852680e-01  0.000000e+00
    outer loop
      vertex   1.646356e+00  3.823838e+00  0.000000e+00
      vertex   7.166502e-01  5.111868e+00  0.000000e+00
      vertex   7.166502e-01  5.111868e+00  1.000000e+01
    endloop
  endfacet
  facet normal  8.108400e-01  5.852680e-01 -0.000000e+00
    outer loop
      vertex   1.646356e+00  3.823838e+00  0.000000e+00
      vertex   7.166502e-01  5.111868e+00  1.000000e+01
      vertex   1.646356e+00  3.823838e+00  1.000000e+01
    endloop
  endfacet
  facet normal -9.634139e-01  2.680180e-01  0.000000e+00
    outer loop
      vertex   7.166502e-01  5.111868e+00  0.000000e+00
      vertex   0.000000e+00  2.535807e+00  0.000000e+00
      vertex   0.000000e+00  2.535807e+00  1.000000e+01
    endloop
  endfacet
  facet normal -9.634139e-01  2.680180e-01  0.000000e+00
    outer loop
      vertex   7.166502e-01  5.111868e+00  0.000000e+00
      vertex   0.000000e+00  2.535807e+00  1.000000e+01
      vertex   7.166502e-01  5.111868e+00  1.000000e+01
    endloop
  endfacet
  facet normal -4.987838e-01 -8.667265e-01  0.000000e+00
    outer loop
      vertex   4.406420e+00  0.000000e+00  0.000000e+00
      vertex   4.406420e+00  0.000000e+00  1.000000e+01
      vertex   0.000000e+00  2.535807e+00  1.000000e+01
    endloop
  endfacet
  facet normal -4.987838e-01 -8.667265e-01  0.000000e+00
    outer loop
      vertex   4.406420e+00  0.000000e+00  0.000000e+00
      vertex   0.000000e+00  2.535807e+00  1.000000e+01
      vertex   0.000000e+00  2.535807e+00  0.000000e+00
    endloop
  endfacet
  facet normal  9.362790e-01  3.512574e-01  0.000000e+00
    outer loop
      vertex   4.406420e+00  0.000000e+00  0.000000e+00
      vertex   3.099021e+00  3.484882e+00  0.000000e+00
      vertex   3.099021e+00  3.484882e+00  1.000000e+01
    endloop
  endfacet
  facet normal  9.362790e-01  3.512574e-01 -0.000000e+00
    outer loop
      vertex   4.406420e+00  0.000000e+00  0.000000e+00
      vertex   3.099021e+00  3.484882e+00  1.000000e+01
      vertex   4.406420e+00  0.000000e+00  1.000000e+01
    endloop
  endfacet
  facet normal  7.835917e-01 -6.212761e-01  0.000000e+00
    outer loop
      vertex   3.099021e+00  3.484882e+00  0.000000e+00
      vertex   5.713820e+00  6.782828e+00  0.000000e+00
      vertex   5.713820e+00  6.782828e+00  1.000000e+01
    endloop
  endfacet
  facet normal  7.835917e-01 -6.212761e-01  0.000000e+00
    outer loop
      vertex   3.099021e+00  3.484882e+00  0.000000e+00
      vertex   5.713820e+00  6.782828e+00  1.000000e+01
      vertex   3.099021e+00  3.484882e+00  1.000000e+01
    endloop
  endfacet
  facet normal  0.000000e+00  1.000000e+00  0.000000e+00
    outer loop
      vertex   1.181503e+00  6.782828e+00  0.000000e+00
      vertex   1.181503e+00  6.782828e+00  1.000000e+01
      vertex   5.713820e+00  6.782828e+00  1.000000e+01
    endloop
  endfacet
  facet normal  0.000000e+00  1.000000e+00  0.000000e+00
    outer loop
      vertex   1.181503e+00  6.782828e+00  0.000000e+00
      vertex   5.713820e+00  6.782828e+00  1.000000e+01
      vertex   5.713820e+00  6.782828e+00  0.000000e+00
    endloop
  endfacet
  facet normal  0.000000e+00  0.000000e+00 -1.000000e+00
    outer loop
      vertex   1.181503e+00  6.782828e+00  0.000000e+00
      vertex   3.099021e+00  3.484882e+00  0.000000e+00
      vertex   4.406420e+00  0.000000e+00  0.000000e+00
    endloop
  endfacet
  facet normal  0.000000e+00  0.000000e+00 -1.000000e+00
    outer loop
      vertex   1.181503e+00  6.782828e+00  0.000000e+00
      vertex   4.406420e+00  0.000000e+00  0.000000e+00
      vertex   1.646356e+00  3.823838e+00  0.000000e+00
    endloop
  endfacet
  facet normal  0.000000e+00  0.000000e+00 -1.000000e+00
    outer loop
      vertex   1.181503e+00  6.782828e+00  0.000000e+00
      vertex   5.713820e+00  6.782828e+00  0.000000e+00
      vertex   3.099021e+00  3.484882e+00  0.000000e+00
    endloop
  endfacet
  facet normal  0.000000e+00  0.000000e+00 -1.000000e+00
    outer loop
      vertex   4.406420e+00  0.000000e+00  0.000000e+00
      vertex   0.000000e+00  2.535807e+00  0.000000e+00
      vertex   7.166502e-01  5.111868e+00  0.000000e+00
    endloop
  endfacet
  facet normal -0.000000e+00  0.000000e+00  1.000000e+00
    outer loop
      vertex   0.000000e+00  2.535807e+00  1.000000e+01
      vertex   4.406420e+00  0.000000e+00  1.000000e+01
      vertex   7.166502e-01  5.111868e+00  1.000000e+01
    endloop
  endfacet
  facet normal  0.000000e+00  0.000000e+00  1.000000e+00
    outer loop
      vertex   4.406420e+00  0.000000e+00  1.000000e+01
      vertex   3.099021e+00  3.484882e+00  1.000000e+01
      vertex   1.181503e+00  6.782828e+00  1.000000e+01
    endloop
  endfacet
  facet normal  0.000000e+00  0.000000e+00  1.000000e+00
    outer loop
      vertex   4.406420e+00  0.000000e+00  1.000000e+01
      vertex   1.181503e+00  6.782828e+00  1.000000e+01
      vertex   1.646356e+00  3.823838e+00  1.000000e+01
    endloop
  endfacet
  facet normal  0.000000e+00 -0.000000e+00  1.000000e+00
    outer loop
      vertex   3.099021e+00  3.484882e+00  1.000000e+01
      vertex   5.713820e+00  6.782828e+00  1.000000e+01
      vertex   1.181503e+00  6.782828e+00  1.000000e+01
    endloop
  endfacet
endsolid vcg
