solid STL generated by MeshLab
  facet normal  0.000000e+00  0.000000e+00  1.000000e+00
    outer loop
      vertex   0.000000e+00  0.000000e+00  1.400000e+01
      vertex   4.000000e+00  0.000000e+00  1.400000e+01
      vertex   4.000000e+00  1.200000e+01  1.400000e+01
    endloop
  endfacet
  facet normal  0.000000e+00  0.000000e+00  1.000000e+00
    outer loop
      vertex   0.000000e+00  0.000000e+00  1.400000e+01
      vertex   4.000000e+00  1.200000e+01  1.400000e+01
      vertex   0.000000e+00  1.200000e+01  1.400000e+01
    endloop
  endfacet
  facet normal -0.000000e+00  1.000000e+00  0.000000e+00
    outer loop
      vertex   0.000000e+00  1.200000e+01  1.400000e+01
      vertex   4.000000e+00  1.200000e+01  1.400000e+01
      vertex   4.000000e+00  1.200000e+01  0.000000e+00
    endloop
  endfacet
  facet normal  0.000000e+00  1.000000e+00  0.000000e+00
    outer loop
      vertex   0.000000e+00  1.200000e+01  1.400000e+01
      vertex   4.000000e+00  1.200000e+01  0.000000e+00
      vertex   0.000000e+00  1.200000e+01  0.000000e+00
    endloop
  endfacet
  facet normal  0.000000e+00  0.000000e+00 -1.000000e+00
    outer loop
      vertex   0.000000e+00  1.200000e+01  0.000000e+00
      vertex   4.000000e+00  1.200000e+01  0.000000e+00
      vertex   4.000000e+00  0.000000e+00  0.000000e+00
    endloop
  endfacet
  facet normal  0.000000e+00  0.000000e+00 -1.000000e+00
    outer loop
      vertex   0.000000e+00  1.200000e+01  0.000000e+00
      vertex   4.000000e+00  0.000000e+00  0.000000e+00
      vertex   0.000000e+00  0.000000e+00  0.000000e+00
    endloop
  endfacet
  facet normal  0.000000e+00 -1.000000e+00  0.000000e+00
    outer loop
      vertex   0.000000e+00  0.000000e+00  0.000000e+00
      vertex   4.000000e+00  0.000000e+00  0.000000e+00
      vertex   4.000000e+00  0.000000e+00  1.400000e+01
    endloop
  endfacet
  facet normal  0.000000e+00 -1.000000e+00  0.000000e+00
    outer loop
      vertex   0.000000e+00  0.000000e+00  0.000000e+00
      vertex   4.000000e+00  0.000000e+00  1.400000e+01
      vertex   0.000000e+00  0.000000e+00  1.400000e+01
    endloop
  endfacet
  facet normal  0.000000e+00  0.000000e+00 -1.000000e+00
    outer loop
      vertex   0.000000e+00  1.152000e+01  1.360000e+01
      vertex   4.000000e+00  1.152000e+01  1.360000e+01
      vertex   4.000000e+00  3.120000e-01  1.360000e+01
    endloop
  endfacet
  facet normal  0.000000e+00  0.000000e+00 -1.000000e+00
    outer loop
      vertex   0.000000e+00  1.152000e+01  1.360000e+01
      vertex   4.000000e+00  3.120000e-01  1.360000e+01
      vertex   0.000000e+00  3.120000e-01  1.360000e+01
    endloop
  endfacet
  facet normal  0.000000e+00 -1.000000e+00  0.000000e+00
    outer loop
      vertex   0.000000e+00  1.152000e+01  3.999996e-01
      vertex   4.000000e+00  1.152000e+01  3.999996e-01
      vertex   4.000000e+00  1.152000e+01  1.360000e+01
    endloop
  endfacet
  facet normal  0.000000e+00 -1.000000e+00  0.000000e+00
    outer loop
      vertex   0.000000e+00  1.152000e+01  3.999996e-01
      vertex   4.000000e+00  1.152000e+01  1.360000e+01
      vertex   0.000000e+00  1.152000e+01  1.360000e+01
    endloop
  endfacet
  facet normal  0.000000e+00  0.000000e+00  1.000000e+00
    outer loop
      vertex   0.000000e+00  3.120000e-01  3.999996e-01
      vertex   4.000000e+00  3.120000e-01  3.999996e-01
      vertex   4.000000e+00  1.152000e+01  3.999996e-01
    endloop
  endfacet
  facet normal  0.000000e+00  0.000000e+00  1.000000e+00
    outer loop
      vertex   0.000000e+00  3.120000e-01  3.999996e-01
      vertex   4.000000e+00  1.152000e+01  3.999996e-01
      vertex   0.000000e+00  1.152000e+01  3.999996e-01
    endloop
  endfacet
  facet normal -0.000000e+00  1.000000e+00  0.000000e+00
    outer loop
      vertex   0.000000e+00  3.120000e-01  1.360000e+01
      vertex   4.000000e+00  3.120000e-01  1.360000e+01
      vertex   4.000000e+00  3.120000e-01  3.999996e-01
    endloop
  endfacet
  facet normal  0.000000e+00  1.000000e+00  0.000000e+00
    outer loop
      vertex   0.000000e+00  3.120000e-01  1.360000e+01
      vertex   4.000000e+00  3.120000e-01  3.999996e-01
      vertex   0.000000e+00  3.120000e-01  3.999996e-01
    endloop
  endfacet
  facet normal -1.000000e+00  0.000000e+00  0.000000e+00
    outer loop
      vertex   0.000000e+00  0.000000e+00  0.000000e+00
      vertex   0.000000e+00  3.120000e-01  3.999996e-01
      vertex   0.000000e+00  1.152000e+01  3.999996e-01
    endloop
  endfacet
  facet normal -1.000000e+00  0.000000e+00  0.000000e+00
    outer loop
      vertex   0.000000e+00  0.000000e+00  0.000000e+00
      vertex   0.000000e+00  1.152000e+01  3.999996e-01
      vertex   0.000000e+00  1.200000e+01  0.000000e+00
    endloop
  endfacet
  facet normal -1.000000e+00  0.000000e+00  0.000000e+00
    outer loop
      vertex   0.000000e+00  0.000000e+00  0.000000e+00
      vertex   0.000000e+00  0.000000e+00  1.400000e+01
      vertex   0.000000e+00  3.120000e-01  1.360000e+01
    endloop
  endfacet
  facet normal -1.000000e+00  0.000000e+00  0.000000e+00
    outer loop
      vertex   0.000000e+00  0.000000e+00  0.000000e+00
      vertex   0.000000e+00  3.120000e-01  1.360000e+01
      vertex   0.000000e+00  3.120000e-01  3.999996e-01
    endloop
  endfacet
  facet normal -1.000000e+00  0.000000e+00  0.000000e+00
    outer loop
      vertex   0.000000e+00  0.000000e+00  1.400000e+01
      vertex   0.000000e+00  1.200000e+01  1.400000e+01
      vertex   0.000000e+00  1.152000e+01  1.360000e+01
    endloop
  endfacet
  facet normal -1.000000e+00  0.000000e+00  0.000000e+00
    outer loop
      vertex   0.000000e+00  0.000000e+00  1.400000e+01
      vertex   0.000000e+00  1.152000e+01  1.360000e+01
      vertex   0.000000e+00  3.120000e-01  1.360000e+01
    endloop
  endfacet
  facet normal -1.000000e+00  0.000000e+00  0.000000e+00
    outer loop
      vertex   0.000000e+00  1.152000e+01  3.999996e-01
      vertex   0.000000e+00  1.152000e+01  1.360000e+01
      vertex   0.000000e+00  1.200000e+01  1.400000e+01
    endloop
  endfacet
  facet normal -1.000000e+00  0.000000e+00  0.000000e+00
    outer loop
      vertex   0.000000e+00  1.152000e+01  3.999996e-01
      vertex   0.000000e+00  1.200000e+01  1.400000e+01
      vertex   0.000000e+00  1.200000e+01  0.000000e+00
    endloop
  endfacet
  facet normal  1.000000e+00  0.000000e+00  0.000000e+00
    outer loop
      vertex   4.000000e+00  1.200000e+01  0.000000e+00
      vertex   4.000000e+00  1.152000e+01  3.999996e-01
      vertex   4.000000e+00  3.120000e-01  3.999996e-01
    endloop
  endfacet
  facet normal  1.000000e+00  0.000000e+00  0.000000e+00
    outer loop
      vertex   4.000000e+00  1.200000e+01  0.000000e+00
      vertex   4.000000e+00  3.120000e-01  3.999996e-01
      vertex   4.000000e+00  0.000000e+00  0.000000e+00
    endloop
  endfacet
  facet normal  1.000000e+00  0.000000e+00 -0.000000e+00
    outer loop
      vertex   4.000000e+00  3.120000e-01  3.999996e-01
      vertex   4.000000e+00  3.120000e-01  1.360000e+01
      vertex   4.000000e+00  0.000000e+00  1.400000e+01
    endloop
  endfacet
  facet normal  1.000000e+00  0.000000e+00  0.000000e+00
    outer loop
      vertex   4.000000e+00  3.120000e-01  3.999996e-01
      vertex   4.000000e+00  0.000000e+00  1.400000e+01
      vertex   4.000000e+00  0.000000e+00  0.000000e+00
    endloop
  endfacet
  facet normal  1.000000e+00  0.000000e+00  0.000000e+00
    outer loop
      vertex   4.000000e+00  3.120000e-01  1.360000e+01
      vertex   4.000000e+00  1.152000e+01  1.360000e+01
      vertex   4.000000e+00  1.200000e+01  1.400000e+01
    endloop
  endfacet
  facet normal  1.000000e+00  0.000000e+00 -0.000000e+00
    outer loop
      vertex   4.000000e+00  3.120000e-01  1.360000e+01
      vertex   4.000000e+00  1.200000e+01  1.400000e+01
      vertex   4.000000e+00  0.000000e+00  1.400000e+01
    endloop
  endfacet
  facet normal  1.000000e+00  0.000000e+00 -0.000000e+00
    outer loop
      vertex   4.000000e+00  1.200000e+01  0.000000e+00
      vertex   4.000000e+00  1.200000e+01  1.400000e+01
      vertex   4.000000e+00  1.152000e+01  1.360000e+01
    endloop
  endfacet
  facet normal  1.000000e+00  0.000000e+00  0.000000e+00
    outer loop
      vertex   4.000000e+00  1.200000e+01  0.000000e+00
      vertex   4.000000e+00  1.152000e+01  1.360000e+01
      vertex   4.000000e+00  1.152000e+01  3.999996e-01
    endloop
  endfacet
endsolid vcg
